<svg xmlns="http://www.w3.org/2000/svg" viewBox="0 0 400 400" width="400" height="400">
  <defs>
    <linearGradient id="bg" x1="0%" y1="0%" x2="100%" y2="100%">
      <stop offset="0%" stop-color="#fce4ec"/>
      <stop offset="100%" stop-color="#f8bbd0"/>
    </linearGradient>
  </defs>
  <rect width="400" height="400" fill="url(#bg)"/>
  <!-- Hearts -->
  <path d="M80 120 C80 105 95 95 105 105 C115 95 130 105 130 120 C130 140 105 155 105 155 C105 155 80 140 80 120Z" fill="#e91e63" opacity="0.3"/>
  <path d="M270 80 C270 68 282 60 290 68 C298 60 310 68 310 80 C310 95 290 106 290 106 C290 106 270 95 270 80Z" fill="#e91e63" opacity="0.25"/>
  <path d="M300 200 C300 190 310 184 316 190 C322 184 332 190 332 200 C332 212 316 220 316 220 C316 220 300 212 300 200Z" fill="#e91e63" opacity="0.2"/>
  <!-- Bow -->
  <path d="M180 200 Q190 180 200 200 Q210 180 220 200" stroke="#ffb300" stroke-width="3" fill="none" opacity="0.5"/>
  <line x1="200" y1="195" x2="200" y2="260" stroke="#ffb300" stroke-width="2" opacity="0.4"/>
  <!-- Arrow -->
  <line x1="200" y1="260" x2="200" y2="170" stroke="#795548" stroke-width="1.5" opacity="0.3"/>
  <polygon points="195,170 200,155 205,170" fill="#795548" opacity="0.3"/>
  <!-- Wings -->
  <ellipse cx="160" cy="170" rx="30" ry="15" fill="white" opacity="0.4" transform="rotate(-20 160 170)"/>
  <ellipse cx="240" cy="170" rx="30" ry="15" fill="white" opacity="0.4" transform="rotate(20 240 170)"/>
  <text x="200" y="370" text-anchor="middle" font-family="system-ui, sans-serif" font-size="16" font-weight="600" fill="#c2185b" opacity="0.7">Cupid</text>
</svg>